<svg width="28" height="20" viewBox="0 0 28 20" fill="none" xmlns="http://www.w3.org/2000/svg">
<path d="M17.8692 0C23.1849 0 27.4942 4.30926 27.4942 9.625C27.4942 14.83 23.3626 19.07 18.2001 19.2444L17.8692 19.25H9.625C4.30926 19.25 0 14.9407 0 9.625C0 4.42 4.13158 0.179989 9.29411 0.0055809L9.625 0H17.8692ZM17.8692 2.0625H9.625C5.44835 2.0625 2.0625 5.44835 2.0625 9.625C2.0625 13.6998 5.2852 17.0219 9.32084 17.1815L9.625 17.1875H17.8692C22.0458 17.1875 25.4317 13.8017 25.4317 9.625C25.4317 5.55022 22.209 2.22813 18.1733 2.0685L17.8692 2.0625ZM8.24709 5.5C8.81663 5.5 9.27834 5.96171 9.27834 6.53125L9.27713 8.591L11.3408 8.59202C11.9104 8.59202 12.3721 9.05373 12.3721 9.62327C12.3721 10.1928 11.9104 10.6545 11.3408 10.6545L9.27713 10.6535L9.27834 12.7187C9.27834 13.2883 8.81663 13.75 8.24709 13.75C7.67755 13.75 7.21584 13.2883 7.21584 12.7187L7.21462 10.6535L5.15334 10.6545C4.5838 10.6545 4.12209 10.1928 4.12209 9.62327C4.12209 9.05373 4.5838 8.59202 5.15334 8.59202L7.21462 8.591L7.21584 6.53125C7.21584 5.96171 7.67755 5.5 8.24709 5.5ZM17.5283 10.3125C18.4776 10.3125 19.2471 11.082 19.2471 12.0312C19.2471 12.9805 18.4776 13.75 17.5283 13.75C16.5791 13.75 15.8096 12.9805 15.8096 12.0312C15.8096 11.082 16.5791 10.3125 17.5283 10.3125ZM20.2783 5.5C21.2276 5.5 21.9971 6.26951 21.9971 7.21875C21.9971 8.16799 21.2276 8.9375 20.2783 8.9375C19.3291 8.9375 18.5596 8.16799 18.5596 7.21875C18.5596 6.26951 19.3291 5.5 20.2783 5.5Z" fill="#BB181D"/>
</svg>
