<svg width="20" height="20" viewBox="0 0 20 20" fill="none" xmlns="http://www.w3.org/2000/svg">
<path d="M9.09091 0.909091V8.18182C9.09098 8.30122 9.06751 8.41947 9.02185 8.52979C8.97619 8.64012 8.90923 8.74037 8.8248 8.8248C8.74037 8.90923 8.64012 8.97619 8.52979 9.02185C8.41947 9.06751 8.30122 9.09098 8.18182 9.09091H0.909091C0.789688 9.09098 0.671443 9.06751 0.561116 9.02185C0.450789 8.97619 0.350544 8.90923 0.266113 8.8248C0.181682 8.74037 0.114722 8.64012 0.0690605 8.52979C0.0233988 8.41947 -6.87143e-05 8.30122 1.51125e-07 8.18182V0.909091C-6.87143e-05 0.789688 0.0233988 0.671443 0.0690605 0.561116C0.114722 0.450789 0.181682 0.350544 0.266113 0.266113C0.350544 0.181682 0.450789 0.114722 0.561116 0.0690605C0.671443 0.0233988 0.789688 -6.87143e-05 0.909091 1.51125e-07H8.18182C8.30122 -6.85648e-05 8.41947 0.0233987 8.52979 0.0690605C8.64012 0.114722 8.74037 0.181683 8.8248 0.266113C8.90923 0.350544 8.97619 0.450789 9.02185 0.561116C9.06751 0.671443 9.09098 0.789688 9.09091 0.909091ZM19.0909 1.51125e-07H11.8182C11.6988 -6.87143e-05 11.5805 0.0233988 11.4702 0.0690605C11.3599 0.114722 11.2596 0.181682 11.1752 0.266113C11.0908 0.350544 11.0238 0.450789 10.9782 0.561116C10.9325 0.671443 10.909 0.789688 10.9091 0.909091V8.18182C10.909 8.30122 10.9325 8.41947 10.9782 8.52979C11.0238 8.64012 11.0908 8.74037 11.1752 8.8248C11.2596 8.90923 11.3599 8.97619 11.4702 9.02185C11.5805 9.06751 11.6988 9.09098 11.8182 9.09091H19.0909C19.2103 9.09098 19.3286 9.06751 19.4389 9.02185C19.5492 8.97619 19.6495 8.90923 19.7339 8.8248C19.8183 8.74037 19.8853 8.64012 19.9309 8.52979C19.9766 8.41947 20.0001 8.30122 20 8.18182V0.909091C20.0001 0.789688 19.9766 0.671443 19.9309 0.561116C19.8853 0.450789 19.8183 0.350544 19.7339 0.266113C19.6495 0.181683 19.5492 0.114722 19.4389 0.0690605C19.3286 0.0233987 19.2103 -6.85648e-05 19.0909 1.51125e-07ZM8.18182 10.9091H0.909091C0.789688 10.909 0.671443 10.9325 0.561116 10.9782C0.450789 11.0238 0.350544 11.0908 0.266113 11.1752C0.181682 11.2596 0.114722 11.3599 0.0690605 11.4702C0.0233988 11.5805 -6.87143e-05 11.6988 1.51125e-07 11.8182V19.0909C-6.87143e-05 19.2103 0.0233988 19.3286 0.0690605 19.4389C0.114722 19.5492 0.181682 19.6495 0.266113 19.7339C0.350544 19.8183 0.450789 19.8853 0.561116 19.9309C0.671443 19.9766 0.789688 20.0001 0.909091 20H8.18182C8.30122 20.0001 8.41947 19.9766 8.52979 19.9309C8.64012 19.8853 8.74037 19.8183 8.8248 19.7339C8.90923 19.6495 8.97619 19.5492 9.02185 19.4389C9.06751 19.3286 9.09098 19.2103 9.09091 19.0909V11.8182C9.09098 11.6988 9.06751 11.5805 9.02185 11.4702C8.97619 11.3599 8.90923 11.2596 8.8248 11.1752C8.74037 11.0908 8.64012 11.0238 8.52979 10.9782C8.41947 10.9325 8.30122 10.909 8.18182 10.9091ZM19.0909 10.9091H11.8182C11.6988 10.909 11.5805 10.9325 11.4702 10.9782C11.3599 11.0238 11.2596 11.0908 11.1752 11.1752C11.0908 11.2596 11.0238 11.3599 10.9782 11.4702C10.9325 11.5805 10.909 11.6988 10.9091 11.8182V19.0909C10.909 19.2103 10.9325 19.3286 10.9782 19.4389C11.0238 19.5492 11.0908 19.6495 11.1752 19.7339C11.2596 19.8183 11.3599 19.8853 11.4702 19.9309C11.5805 19.9766 11.6988 20.0001 11.8182 20H19.0909C19.2103 20.0001 19.3286 19.9766 19.4389 19.9309C19.5492 19.8853 19.6495 19.8183 19.7339 19.7339C19.8183 19.6495 19.8853 19.5492 19.9309 19.4389C19.9766 19.3286 20.0001 19.2103 20 19.0909V11.8182C20.0001 11.6988 19.9766 11.5805 19.9309 11.4702C19.8853 11.3599 19.8183 11.2596 19.7339 11.1752C19.6495 11.0908 19.5492 11.0238 19.4389 10.9782C19.3286 10.9325 19.2103 10.909 19.0909 10.9091Z" fill="#BB181D"/>
</svg>
