<svg width="39" height="45" viewBox="0 0 39 45" fill="none" xmlns="http://www.w3.org/2000/svg">
<path d="M38.85 12.7612C38.85 12.6119 39 12.4627 39 12.3134C39 12.3134 39 12.3134 39 12.1642C39 12.1642 39 12.1642 39 12.0149C39 11.8657 39 11.7164 39 11.5672C39 11.5672 39 11.5672 39 11.4179C39 11.2687 38.85 11.1194 38.85 10.9701C38.7 10.8209 38.7 10.8209 38.55 10.6716L22.05 0.223881C21.6 -0.0746269 20.85 -0.0746269 20.4 0.223881L0.9 13.6567L0.75 13.806C0.75 13.806 0.75 13.806 0.6 13.806C0.45 13.9552 0.45 14.1045 0.3 14.2537C0.3 14.2537 0.3 14.2537 0.3 14.403C6.70552e-08 14.8507 0 15 0 15.1493V24.1045V33.0597C0 33.5075 0.3 34.1045 0.75 34.2537L17.25 44.7015C17.55 44.8507 17.85 45 18 45C18.3 45 18.6 44.8507 18.9 44.7015L38.4 31.2687C38.7 30.9701 39 30.6716 39 30.2239C39 29.7761 38.85 29.3284 38.55 29.0299C37.2 27.6866 36.9 25.7463 37.8 23.9552L38.85 21.7164C38.85 21.5672 39 21.4179 39 21.2687V21.1194C39 20.9701 39 20.6716 38.85 20.5224V20.3731C38.85 20.2239 38.7 20.0746 38.55 19.9254C37.2 18.5821 36.9 16.6418 37.8 14.8507L38.85 12.7612ZM35.4 20.8209L18 32.7612L3 23.3582V17.9851L17.25 26.9403C17.55 27.0896 17.85 27.2388 18 27.2388C18.3 27.2388 18.6 27.0896 18.9 26.9403L34.35 16.3433C34.2 17.8358 34.5 19.3284 35.4 20.8209ZM18 41.7164L3 32.3134V26.9403L17.25 35.8955C17.55 36.0448 17.85 36.194 18 36.194C18.3 36.194 18.6 36.0448 18.9 35.8955L34.35 25.2985C34.2 26.9403 34.5 28.5821 35.4 29.9254L18 41.7164Z" fill="#410702"/>
</svg>
