<svg width="20" height="22" viewBox="0 0 20 22" fill="none" xmlns="http://www.w3.org/2000/svg">
<path d="M17.5666 0.149902H1.73324C1.31348 0.150458 0.911078 0.316573 0.614267 0.611823C0.317455 0.907072 0.150461 1.30736 0.149902 1.7249V19.5749C0.150461 19.9924 0.317455 20.3927 0.614267 20.688C0.911078 20.9832 1.31348 21.1493 1.73324 21.1499H17.5666C17.9863 21.1493 18.3887 20.9832 18.6855 20.688C18.9823 20.3927 19.1493 19.9924 19.1499 19.5749V1.7249C19.1493 1.30736 18.9823 0.907072 18.6855 0.611823C18.3887 0.316573 17.9863 0.150458 17.5666 0.149902ZM18.0943 19.5749C18.0941 19.7141 18.0384 19.8474 17.9395 19.9458C17.8405 20.0442 17.7065 20.0996 17.5666 20.0999H1.73324C1.59335 20.0996 1.45927 20.0442 1.36035 19.9458C1.26143 19.8474 1.20574 19.7141 1.20546 19.5749V1.7249C1.20574 1.58575 1.26143 1.45237 1.36035 1.35398C1.45927 1.25558 1.59335 1.20018 1.73324 1.1999H17.5666C17.7065 1.20018 17.8405 1.25558 17.9395 1.35398C18.0384 1.45237 18.0941 1.58575 18.0943 1.7249V19.5749ZM2.26101 7.4999H17.0388V2.2499H2.26101V7.4999ZM3.31657 3.2999H15.9832V6.4499H3.31657V3.2999ZM5.42768 9.5999H3.31657C3.03662 9.5999 2.76813 9.71053 2.57018 9.90744C2.37222 10.1044 2.26101 10.3714 2.26101 10.6499V12.7499C2.26101 13.0284 2.37222 13.2955 2.57018 13.4924C2.76813 13.6893 3.03662 13.7999 3.31657 13.7999H5.42768C5.70763 13.7999 5.97612 13.6893 6.17407 13.4924C6.37203 13.2955 6.48324 13.0284 6.48324 12.7499V10.6499C6.48324 10.3714 6.37203 10.1044 6.17407 9.90744C5.97612 9.71053 5.70763 9.5999 5.42768 9.5999ZM5.42768 12.7499H3.31657V10.6499H5.42768V12.7499ZM10.7055 9.5999H8.59435C8.3144 9.5999 8.04591 9.71053 7.84796 9.90744C7.65 10.1044 7.53879 10.3714 7.53879 10.6499V12.7499C7.53879 13.0284 7.65 13.2955 7.84796 13.4924C8.04591 13.6893 8.3144 13.7999 8.59435 13.7999H10.7055C10.9854 13.7999 11.2539 13.6893 11.4518 13.4924C11.6498 13.2955 11.761 13.0284 11.761 12.7499V10.6499C11.761 10.3714 11.6498 10.1044 11.4518 9.90744C11.2539 9.71053 10.9854 9.5999 10.7055 9.5999ZM10.7055 12.7499H8.59435V10.6499H10.7055V12.7499ZM10.7055 14.8499H8.59435C8.3144 14.8499 8.04591 14.9605 7.84796 15.1574C7.65 15.3544 7.53879 15.6214 7.53879 15.8999V17.9999C7.53879 18.2784 7.65 18.5455 7.84796 18.7424C8.04591 18.9393 8.3144 19.0499 8.59435 19.0499H10.7055C10.9854 19.0499 11.2539 18.9393 11.4518 18.7424C11.6498 18.5455 11.761 18.2784 11.761 17.9999V15.8999C11.761 15.6214 11.6498 15.3544 11.4518 15.1574C11.2539 14.9605 10.9854 14.8499 10.7055 14.8499ZM10.7055 17.9999H8.59435V15.8999H10.7055V17.9999ZM5.42768 14.8499H3.31657C3.03662 14.8499 2.76813 14.9605 2.57018 15.1574C2.37222 15.3544 2.26101 15.6214 2.26101 15.8999V17.9999C2.26101 18.2784 2.37222 18.5455 2.57018 18.7424C2.76813 18.9393 3.03662 19.0499 3.31657 19.0499H5.42768C5.70763 19.0499 5.97612 18.9393 6.17407 18.7424C6.37203 18.5455 6.48324 18.2784 6.48324 17.9999V15.8999C6.48324 15.6214 6.37203 15.3544 6.17407 15.1574C5.97612 14.9605 5.70763 14.8499 5.42768 14.8499ZM5.42768 17.9999H3.31657V15.8999H5.42768V17.9999ZM15.9832 9.5999H13.8721C13.5922 9.5999 13.3237 9.71053 13.1257 9.90744C12.9278 10.1044 12.8166 10.3714 12.8166 10.6499V17.9999C12.8166 18.2784 12.9278 18.5455 13.1257 18.7424C13.3237 18.9393 13.5922 19.0499 13.8721 19.0499H15.9832C16.2632 19.0499 16.5317 18.9393 16.7296 18.7424C16.9276 18.5455 17.0388 18.2784 17.0388 17.9999V10.6499C17.0388 10.3714 16.9276 10.1044 16.7296 9.90744C16.5317 9.71053 16.2632 9.5999 15.9832 9.5999ZM15.9832 17.9999H13.8721V10.6499H15.9832V17.9999Z" fill="#BB181D" stroke="#BB181D" stroke-width="0.3"/>
</svg>
