<svg width="45" height="38" viewBox="0 0 45 38" fill="none" xmlns="http://www.w3.org/2000/svg">
<path d="M38.0769 10.3636V34.5455C38.0759 35.4613 37.7108 36.3394 37.0619 36.987C36.413 37.6347 35.5331 37.999 34.6154 38H3.46154C2.5438 37.999 1.66396 37.6347 1.01502 36.987C0.366083 36.3394 0.00104958 35.4613 0 34.5455V10.3636C0.00104958 9.44776 0.366083 8.56969 1.01502 7.92206C1.66396 7.27443 2.5438 6.91014 3.46154 6.90909H34.6154C35.5331 6.91014 36.413 7.27443 37.0619 7.92206C37.7108 8.56969 38.0759 9.44776 38.0769 10.3636ZM41.5385 0H8.65385C8.19482 0 7.75459 0.18198 7.43001 0.505907C7.10543 0.829833 6.92308 1.26917 6.92308 1.72727C6.92308 2.18537 7.10543 2.62471 7.43001 2.94864C7.75459 3.27257 8.19482 3.45455 8.65385 3.45455H41.5385V29.3636C41.5385 29.8217 41.7208 30.2611 42.0454 30.585C42.37 30.9089 42.8102 31.0909 43.2692 31.0909C43.7283 31.0909 44.1685 30.9089 44.4931 30.585C44.8177 30.2611 45 29.8217 45 29.3636V3.45455C44.999 2.53866 44.6339 1.6606 43.985 1.01297C43.336 0.365344 42.4562 0.00104746 41.5385 0Z" fill="#410702"/>
</svg>
