<svg width="16" height="16" viewBox="0 0 16 16" fill="none" xmlns="http://www.w3.org/2000/svg">
<path d="M12.375 9.75V15M9.75 12.375H15M2.75 6.25H4.5C5.4665 6.25 6.25 5.4665 6.25 4.5V2.75C6.25 1.7835 5.4665 1 4.5 1H2.75C1.7835 1 1 1.7835 1 2.75V4.5C1 5.4665 1.7835 6.25 2.75 6.25ZM11.5 6.25H13.25C14.2165 6.25 15 5.4665 15 4.5V2.75C15 1.7835 14.2165 1 13.25 1H11.5C10.5335 1 9.75 1.7835 9.75 2.75V4.5C9.75 5.4665 10.5335 6.25 11.5 6.25ZM2.75 15H4.5C5.4665 15 6.25 14.2165 6.25 13.25V11.5C6.25 10.5335 5.4665 9.75 4.5 9.75H2.75C1.7835 9.75 1 10.5335 1 11.5V13.25C1 14.2165 1.7835 15 2.75 15Z" stroke="#BB181D" stroke-width="2" stroke-linecap="round" stroke-linejoin="round"/>
</svg>
