<svg width="35" height="45" viewBox="0 0 35 45" fill="none" xmlns="http://www.w3.org/2000/svg">
<path d="M33.4091 9.64286H19.0909V30.5357L14.3182 28.9286L9.54545 30.5357V9.64286H6.36364C4.61364 9.64286 3.18182 8.19643 3.18182 6.42857C3.18182 4.66071 4.61364 3.21429 6.36364 3.21429H33.4091C34.3636 3.21429 35 2.57143 35 1.60714C35 0.642857 34.3636 0 33.4091 0H6.36364C2.86364 0 0 2.89286 0 6.42857V38.5714C0 42.1071 2.86364 45 6.36364 45H33.4091C34.3636 45 35 44.3571 35 43.3929V11.25C35 10.2857 34.3636 9.64286 33.4091 9.64286Z" fill="#410702"/>
</svg>
