<svg width="16" height="16" viewBox="0 0 16 16" fill="none" xmlns="http://www.w3.org/2000/svg">
<path d="M15 8.875V2.75C15 1.7835 14.2165 1 13.25 1H2.75C1.7835 1 1 1.7835 1 2.75V8.875M15 8.875V13.25C15 14.2165 14.2165 15 13.25 15H2.75C1.7835 15 1 14.2165 1 13.25V8.875M15 8.875H12.7374C12.5054 8.875 12.2828 8.96719 12.1187 9.13128L10.0063 11.2437C9.84219 11.4078 9.61963 11.5 9.38756 11.5H6.61244C6.38037 11.5 6.15781 11.4078 5.99372 11.2437L3.88128 9.13128C3.71719 8.96719 3.49463 8.875 3.26256 8.875H1" stroke="#BB181D" stroke-width="2" stroke-linecap="round" stroke-linejoin="round"/>
</svg>
