<svg width="29" height="29" viewBox="0 0 29 29" fill="none" xmlns="http://www.w3.org/2000/svg">
<path d="M5.31149 21.6188C5.31149 22.1164 5.48375 22.5375 5.82827 22.882C6.17279 23.2265 6.60344 23.4084 7.12022 23.4275H10.7377C11.2353 23.4275 11.666 23.2457 12.0296 22.882C12.3933 22.5184 12.5656 22.0973 12.5464 21.6188V7.12022C12.5464 6.62258 12.3742 6.19193 12.0296 5.82827C11.6851 5.46461 11.2545 5.29235 10.7377 5.31149H7.12022C6.62258 5.31149 6.19193 5.48375 5.82827 5.82827C5.46461 6.17279 5.29235 6.60344 5.31149 7.12022V21.6188ZM16.1639 21.6188C16.1639 22.1164 16.3457 22.5375 16.7094 22.882C17.073 23.2265 17.4941 23.4084 17.9726 23.4275H21.5901C22.0877 23.4275 22.5184 23.2457 22.882 22.882C23.2457 22.5184 23.4179 22.0973 23.3988 21.6188V7.12022C23.3988 6.62258 23.2265 6.19193 22.882 5.82827C22.5375 5.46461 22.1068 5.29235 21.5901 5.31149H17.9726C17.475 5.31149 17.0539 5.48375 16.7094 5.82827C16.3648 6.17279 16.183 6.60344 16.1639 7.12022V21.6188Z" fill="#410702"/>
</svg>
