<svg width="25" height="25" viewBox="0 0 25 25" fill="none" xmlns="http://www.w3.org/2000/svg">
<path fill-rule="evenodd" clip-rule="evenodd" d="M21.8939 17.4114C22.0199 17.1561 22.3322 17.0496 22.5889 17.1724L23.61 17.6608C23.61 17.6608 20.6992 24.582 12.549 24.9054C4.78697 24.7113 0.0486121 18.6147 0.00035789 12.4214C-0.0478963 6.22803 4.78697 0.0667628 12.355 0.00207892C19.7936 -0.127289 22.6468 5.82415 22.6468 5.82415C22.7858 6.07382 22.8984 6.04381 22.8984 5.75933V2.52436C22.8986 2.38719 22.9531 2.25567 23.0501 2.15871C23.1472 2.06174 23.2787 2.00728 23.4159 2.00728H24.2568C24.5426 2.00728 24.7743 2.24014 24.7743 2.52578V8.86273C24.7745 8.93076 24.7612 8.99816 24.7353 9.06106C24.7094 9.12396 24.6713 9.18113 24.6233 9.2293C24.5752 9.27746 24.5181 9.31567 24.4553 9.34175C24.3925 9.36782 24.3251 9.38124 24.2571 9.38124H17.7234C17.6555 9.38129 17.5882 9.36797 17.5255 9.34204C17.4628 9.3161 17.4058 9.27806 17.3577 9.23009C17.3097 9.18213 17.2716 9.12516 17.2456 9.06247C17.2196 8.99977 17.2062 8.93256 17.2061 8.86468V8.08666C17.2061 7.8014 17.4376 7.5666 17.7245 7.56233L21.0215 7.51317C21.3077 7.5089 21.4384 7.29596 21.3037 7.04382C21.3037 7.04382 18.9526 1.61918 12.4195 1.68386C6.08051 1.74854 1.71422 7.10812 1.74669 12.4527C2.1348 19.6013 7.56824 23.0942 12.5489 22.9649C19.5994 22.9649 21.8938 17.4114 21.8938 17.4114H21.8939Z" fill="black"/>
</svg>
