<svg width="36" height="46" viewBox="0 0 36 46" fill="none" xmlns="http://www.w3.org/2000/svg">
<path fill-rule="evenodd" clip-rule="evenodd" d="M17.7721 0V11.2734V11.396C17.7719 12.3522 17.7717 13.2814 17.8732 14.0478C17.9876 14.9118 18.2666 15.8977 19.0735 16.7166C19.8803 17.5356 20.8518 17.8186 21.7031 17.9347C22.4582 18.0378 23.3737 18.0376 24.3158 18.0374H24.4367H35.5442V31.5654C35.5442 37.9425 35.5442 41.1311 33.5922 43.1123C31.6401 45.0934 28.4985 45.0934 22.2151 45.0934H13.3291C7.04569 45.0934 3.904 45.0934 1.952 43.1123C5.2965e-07 41.1311 0 37.9425 0 31.5654V13.528C0 7.15085 5.2965e-07 3.96227 1.952 1.98114C3.904 0 7.04569 0 13.3291 0H17.7721ZM22.2151 0.0104168V11.2734C22.2151 12.4 22.2198 13.0181 22.2767 13.4469L22.2789 13.4633L22.2951 13.4656C22.7177 13.5233 23.3266 13.528 24.4367 13.528H35.534C35.5114 12.5999 35.4387 11.9857 35.2061 11.4155C34.8678 10.5869 34.2258 9.93519 32.9415 8.63185L27.0394 2.64151C25.7551 1.33817 25.1131 0.686503 24.2965 0.343251C23.7347 0.107074 23.1295 0.0333919 22.2151 0.0104168ZM8.88606 24.8014C8.88606 23.5561 9.88068 22.5467 11.1076 22.5467H24.4367C25.6636 22.5467 26.6582 23.5561 26.6582 24.8014C26.6582 26.0466 25.6636 27.0561 24.4367 27.0561H11.1076C9.88068 27.0561 8.88606 26.0466 8.88606 24.8014ZM11.1076 31.5654C9.88068 31.5654 8.88606 32.5748 8.88606 33.8201C8.88606 35.0653 9.88068 36.0747 11.1076 36.0747H19.9936C21.2206 36.0747 22.2151 35.0653 22.2151 33.8201C22.2151 32.5748 21.2206 31.5654 19.9936 31.5654H11.1076Z" fill="#410702"/>
</svg>
