<svg width="25" height="26" viewBox="0 0 25 26" fill="none" xmlns="http://www.w3.org/2000/svg">
<path d="M8.5 21.1694C8.5 23.2406 6.82106 24.9194 4.75 24.9194C2.67894 24.9194 1 23.2406 1 21.1694C1 19.0983 2.67894 17.4194 4.75 17.4194C6.82106 17.4194 8.5 19.0983 8.5 21.1694Z" stroke="#410702" stroke-width="2"/>
<path d="M23.5 18.6699C23.5 20.741 21.8211 22.4199 19.75 22.4199C17.6789 22.4199 16 20.741 16 18.6699C16 16.5988 17.6789 14.9199 19.75 14.9199C21.8211 14.9199 23.5 16.5988 23.5 18.6699Z" stroke="#410702" stroke-width="2"/>
<path d="M8.5 21.1699V7.41992" stroke="#410702" stroke-width="2"/>
<path d="M23.5 18.6699V4.91992" stroke="#410702" stroke-width="2"/>
<path d="M16.9189 2.113L11.9189 3.77966C10.2689 4.32969 9.44379 4.60469 8.9719 5.25941C8.5 5.91413 8.5 6.78377 8.5 8.52309V12.4193L23.5 7.41929V6.85641C23.5 3.69084 23.5 2.10805 22.4617 1.35975C21.4235 0.611438 19.922 1.11196 16.9189 2.113Z" stroke="#410702" stroke-width="2" stroke-linecap="round"/>
</svg>
